<svg xmlns="http://www.w3.org/2000/svg" xmlns:xlink="http://www.w3.org/1999/xlink" width="27.104" height="27.104" viewBox="0 0 27.104 27.104">
  <defs>
    <linearGradient id="linear-gradient" x1="0.719" y1="-0.281" x2="0.527" y2="1.318" gradientUnits="objectBoundingBox">
      <stop offset="0" stop-color="#fff"/>
      <stop offset="0.553" stop-color="#fff"/>
      <stop offset="1" stop-color="#fff"/>
    </linearGradient>
  </defs>
  <g id="Group_558" data-name="Group 558" transform="translate(-1687 1040.104) rotate(-90)">
    <g id="Group_153" data-name="Group 153" transform="translate(1013 1687)">
      <path id="Subtraction_13" data-name="Subtraction 13" d="M13.552,27.1A13.551,13.551,0,0,1,3.969,3.969,13.552,13.552,0,0,1,23.135,23.135,13.463,13.463,0,0,1,13.552,27.1ZM13.539,1.412a12.112,12.112,0,0,0-12.1,12.1v.083a12.1,12.1,0,1,0,24.2,0v-.083A12.112,12.112,0,0,0,13.539,1.412Z" transform="translate(0 0)" fill="url(#linear-gradient)"/>
    </g>
    <g id="Group_167" data-name="Group 167" transform="translate(1028.314 1696.938) rotate(90)">
      <line id="Line_3" data-name="Line 3" y1="3.569" x2="3.569" transform="translate(3.569)" fill="none" stroke="#fff" stroke-linecap="round" stroke-width="1.5"/>
      <line id="Line_4" data-name="Line 4" x1="3.569" y1="3.569" fill="none" stroke="#fff" stroke-linecap="round" stroke-width="1.5"/>
    </g>
  </g>
</svg>
