<svg xmlns="http://www.w3.org/2000/svg" width="24.649" height="24.649" viewBox="0 0 24.649 24.649">
  <g id="home" transform="translate(0 -0.001)">
    <g id="Group_596" data-name="Group 596" transform="translate(21.087 17.043)">
      <g id="Group_595" data-name="Group 595">
        <path id="Path_346" data-name="Path 346" d="M438.822,354.141a.481.481,0,1,0,.141.34A.485.485,0,0,0,438.822,354.141Z" transform="translate(-438 -354)" fill="#fff"/>
      </g>
    </g>
    <g id="Group_598" data-name="Group 598" transform="translate(0 0.001)">
      <g id="Group_597" data-name="Group 597">
        <path id="Path_347" data-name="Path 347" d="M24.168,23.687H22.05V19.21a.481.481,0,0,0-.963,0v4.477H5.873V19.162a.481.481,0,1,0-.963,0v4.525H3.563V11.026l8.762-6.841,8.762,6.841V15.6a.481.481,0,0,0,.963,0V11.777l.084.066a.481.481,0,0,0,.637-.039l1.736-1.737a.481.481,0,0,0-.044-.72l-2.895-2.26V2.263a.481.481,0,0,0-.481-.481H18.3a.481.481,0,0,0-.481.481V4.158L12.621.1a.481.481,0,0,0-.592,0L.187,9.348a.481.481,0,0,0-.044.72L1.879,11.8a.482.482,0,0,0,.637.039l.084-.066v11.91H.481a.481.481,0,1,0,0,.963H24.168a.481.481,0,1,0,0-.963ZM18.778,2.745h1.827V6.336L18.778,4.909ZM2.259,10.822,1.208,9.772,12.325,1.093,23.441,9.772l-1.05,1.051-9.77-7.627a.481.481,0,0,0-.592,0Z" transform="translate(0 -0.001)" fill="#fff"/>
      </g>
    </g>
    <g id="Group_600" data-name="Group 600" transform="translate(7.222 10.496)">
      <g id="Group_599" data-name="Group 599">
        <path id="Path_348" data-name="Path 348" d="M159.725,218h-9.243a.481.481,0,0,0-.481.481v9.244a.481.481,0,0,0,.481.481h9.243a.481.481,0,0,0,.481-.481v-9.244A.481.481,0,0,0,159.725,218Zm-5.1,9.244h-3.659v-3.659h3.659Zm0-4.622h-3.659v-3.659h3.659Zm4.622,4.622h-3.659v-3.659h3.659Zm0-4.622h-3.659v-3.659h3.659Z" transform="translate(-150 -218)" fill="#fff"/>
      </g>
    </g>
    <g id="Group_602" data-name="Group 602" transform="translate(4.911 16.779)">
      <g id="Group_601" data-name="Group 601">
        <path id="Path_349" data-name="Path 349" d="M102.481,348.506a.481.481,0,0,0-.481.481V349a.481.481,0,0,0,.963,0v-.008A.482.482,0,0,0,102.481,348.506Z" transform="translate(-102 -348.506)" fill="#fff"/>
      </g>
    </g>
  </g>
</svg>
