<svg xmlns="http://www.w3.org/2000/svg" width="36.762" height="29.294" viewBox="0 0 36.762 29.294">
  <g id="list" transform="translate(0 -52)">
    <path id="Path_357" data-name="Path 357" d="M10.142,64.637H2.495A2.5,2.5,0,0,1,0,62.142V54.495A2.5,2.5,0,0,1,2.495,52h7.647a2.5,2.5,0,0,1,2.495,2.495v7.647A2.5,2.5,0,0,1,10.142,64.637ZM2.495,54.3a.2.2,0,0,0-.2.2v7.647a.2.2,0,0,0,.2.2h7.647a.2.2,0,0,0,.2-.2V54.495a.2.2,0,0,0-.2-.2Z" transform="translate(0 0)" fill="#fff"/>
    <path id="Path_358" data-name="Path 358" d="M10.142,296.637H2.495A2.5,2.5,0,0,1,0,294.142v-7.647A2.5,2.5,0,0,1,2.495,284h7.647a2.5,2.5,0,0,1,2.495,2.495v7.647A2.5,2.5,0,0,1,10.142,296.637ZM2.495,286.3a.2.2,0,0,0-.2.2v7.647a.2.2,0,0,0,.2.2h7.647a.2.2,0,0,0,.2-.2v-7.647a.2.2,0,0,0-.2-.2Z" transform="translate(0 -215.342)" fill="#fff"/>
    <path id="Path_359" data-name="Path 359" d="M243.53,102.3H225.149a1.149,1.149,0,0,1,0-2.3H243.53a1.149,1.149,0,0,1,0,2.3Z" transform="translate(-207.917 -44.554)" fill="#fff"/>
    <path id="Path_360" data-name="Path 360" d="M237.211,162.3H225.149a1.149,1.149,0,0,1,0-2.3h12.062a1.149,1.149,0,0,1,0,2.3Z" transform="translate(-207.917 -100.246)" fill="#fff"/>
    <path id="Path_361" data-name="Path 361" d="M243.53,330.3H225.149a1.149,1.149,0,0,1,0-2.3H243.53a1.149,1.149,0,0,1,0,2.3Z" transform="translate(-207.917 -256.183)" fill="#fff"/>
    <path id="Path_362" data-name="Path 362" d="M237.211,394.3H225.149a1.149,1.149,0,0,1,0-2.3h12.062a1.149,1.149,0,0,1,0,2.3Z" transform="translate(-207.917 -315.588)" fill="#fff"/>
  </g>
</svg>
