<svg xmlns="http://www.w3.org/2000/svg" width="51.5" height="50.832" viewBox="0 0 51.5 50.832">
  <g id="garage" transform="translate(0 -3.321)">
    <path id="Path_20" data-name="Path 20" d="M184.853,433.679h14.313v1.509H184.853Z" transform="translate(-166.259 -387.07)" fill="#f08017"/>
    <path id="Path_21" data-name="Path 21" d="M342.148,433.679h2.263v1.509h-2.263Z" transform="translate(-307.733 -387.07)" fill="#f08017"/>
    <path id="Path_22" data-name="Path 22" d="M147.353,433.679h2.263v1.509h-2.263Z" transform="translate(-132.531 -387.07)" fill="#f08017"/>
    <path id="Path_23" data-name="Path 23" d="M25.75,3.321,0,15.984V54.153H51.5V49.627H49.991v3.018h-4.26V24.752H47.24V18.717H10.3v1.509H45.731v3.018H5.769V20.226H8.787V18.717H4.26v6.035H5.769V52.644H1.509V16.924L25.75,5,49.991,16.924V45.1H51.5V15.984Zm7.286,49.323H18.464a2.251,2.251,0,0,0,.13-.754v-.754H32.906v.754a2.251,2.251,0,0,0,.13.754ZM13.313,49.626V45.1H38.187v4.526Zm23.935-9.053-.431-1.509h1.371a.754.754,0,0,1,0,1.509Zm-11.055,0a4.525,4.525,0,0,0-8.925,0H15.822l1.234-4.319c.182-.638.446-.962.783-.962H33.661c.337,0,.6.323.783.962l1.234,4.319Zm-1.54,0H18.808a3.018,3.018,0,0,1,5.844,0Zm-10.4,0h-.94a.754.754,0,0,1,0-1.509h1.371Zm.946,1.509H36.3l1.132,1.509H14.067ZM14.067,52.644a.755.755,0,0,1-.754-.754v-.754h3.772v.754a.755.755,0,0,1-.754.754Zm21.1,0a.755.755,0,0,1-.754-.754v-.754h3.772v.754a.755.755,0,0,1-.754.754ZM7.278,27.77H44.222v1.509H7.278Zm36.944-3.018v1.509H7.278V24.752ZM7.278,30.787H44.222V52.644H39.566a2.251,2.251,0,0,0,.13-.754v-7.8l-1.509-2.012a2.263,2.263,0,1,0,0-4.526h-1.8l-.49-1.716c-.511-1.789-1.619-2.056-2.234-2.056H17.839c-.615,0-1.723.267-2.234,2.056l-.49,1.716h-1.8a2.263,2.263,0,0,0,0,4.526L11.8,44.094v7.8a2.254,2.254,0,0,0,.13.754H7.278Z" fill="#f08017"/>
    <path id="Path_24" data-name="Path 24" d="M497,433.679h1.509v1.509H497Z" transform="translate(-447.009 -387.07)" fill="#f08017"/>
    <path id="Path_25" data-name="Path 25" d="M0,0H1.509V1.509H0Z" transform="translate(30.306 10.625) rotate(-64.101)" fill="#f08017"/>
    <path id="Path_26" data-name="Path 26" d="M0,0H1.509V1.509H0Z" transform="translate(33.023 11.943) rotate(-64.101)" fill="#f08017"/>
  </g>
</svg>
