<svg xmlns="http://www.w3.org/2000/svg" width="23.398" height="26.042" viewBox="0 0 23.398 26.042">
  <g id="support" transform="translate(-26)">
    <g id="Group_604" data-name="Group 604" transform="translate(42.785 20.142)">
      <g id="Group_603" data-name="Group 603">
        <path id="Path_350" data-name="Path 350" d="M356.509,396a.509.509,0,1,0,.509.509A.509.509,0,0,0,356.509,396Z" transform="translate(-356 -396)" fill="#8b8b8b"/>
      </g>
    </g>
    <g id="Group_606" data-name="Group 606" transform="translate(26)">
      <g id="Group_605" data-name="Group 605">
        <path id="Path_351" data-name="Path 351" d="M44.546,18.5l-2.418-.806-.868-1.736a5.571,5.571,0,0,0,1.508-2.947l.108-.649H43.8a1.528,1.528,0,0,0,1.526-1.526V7.63a7.63,7.63,0,1,0-15.259,0v3.2a1.528,1.528,0,0,0,1.017,1.438v.6a1.528,1.528,0,0,0,1.526,1.526h.447a5.518,5.518,0,0,0,.853,1.321c.072.083.147.163.224.241l-.867,1.735-2.418.806A7.5,7.5,0,0,0,26,25.534a.509.509,0,0,0,.509.509h22.38a.509.509,0,0,0,.509-.509A7.5,7.5,0,0,0,44.546,18.5Zm-.235-7.663a.509.509,0,0,1-.509.509h-.776c.129-1,.215-2.067.25-3.117,0-.03,0-.058,0-.087h1.032ZM31.6,11.343a.509.509,0,0,1-.509-.509v-2.7h1.032q0,.08.005.16V8.3h0c.036,1.021.121,2.059.247,3.038H31.6Zm1.017,2.035a.509.509,0,0,1-.509-.509V12.36h.417l.108.649c.021.123.046.246.075.368ZM32.1,7.121h-1a6.613,6.613,0,0,1,13.186,0h-1a5.152,5.152,0,0,0-5.139-5.086h-.91A5.152,5.152,0,0,0,32.1,7.121Zm5.139-4.069h.91a4.136,4.136,0,0,1,4.123,4.141c0,.16,0,.3,0,.426,0,0,0,0,0,0l-.636-.091a8.173,8.173,0,0,1-4.6-2.3.509.509,0,0,0-.36-.149A4.6,4.6,0,0,0,33.143,6.76,4.135,4.135,0,0,1,37.244,3.052ZM33.759,13.377a29.074,29.074,0,0,1-.61-4.937l.685-.913A3.58,3.58,0,0,1,36.48,6.109,9.2,9.2,0,0,0,41.492,8.54l.749.107c-.05,1.062-.152,2.128-.3,3.109h0c-.047.315-.083.518-.177,1.085A4.32,4.32,0,0,1,38.7,16.316a4,4,0,0,1-4.493-1.922h1.037a1.528,1.528,0,0,0,1.438,1.017H37.7a1.526,1.526,0,0,0,0-3.052H36.681a1.527,1.527,0,0,0-1.439,1.017Zm2.88,3.968a5.1,5.1,0,0,0,1.892.043l-.9.951Zm.294,1.733-1.613,1.706a19.38,19.38,0,0,1-1.139-2.641l.606-1.212Zm3.593-2.319.692,1.384a19.374,19.374,0,0,1-1.139,2.642l-1.727-1.727Zm-4.352-2.874a.509.509,0,0,1,.509-.509H37.7a.509.509,0,0,1,0,1.017H36.681A.509.509,0,0,1,36.173,13.886ZM27.038,25.025a6.428,6.428,0,0,1,4.135-5.563l2.141-.714a20.39,20.39,0,0,0,1.448,3.14l0,.005h0a20.4,20.4,0,0,0,1.392,2.126l.626,1ZM37.7,24.572l-.69-1.107q-.012-.019-.025-.036a19.392,19.392,0,0,1-1.146-1.712L37.652,19.8l1.911,1.911a19.373,19.373,0,0,1-1.15,1.719C38.388,23.461,38.424,23.409,37.7,24.572Zm.916.453.626-1a20.386,20.386,0,0,0,1.4-2.143l.007-.014v0a20.373,20.373,0,0,0,1.433-3.114l2.141.714a6.428,6.428,0,0,1,4.135,5.563Z" transform="translate(-26)" fill="#8b8b8b"/>
      </g>
    </g>
    <g id="Group_608" data-name="Group 608" transform="translate(44.573 21.113)">
      <g id="Group_607" data-name="Group 607">
        <path id="Path_352" data-name="Path 352" d="M393.4,416.942a5.087,5.087,0,0,0-1.44-1.748.509.509,0,1,0-.62.806,4.063,4.063,0,0,1,1.15,1.4.509.509,0,0,0,.91-.455Z" transform="translate(-391.139 -415.089)" fill="#8b8b8b"/>
      </g>
    </g>
  </g>
</svg>
