<svg xmlns="http://www.w3.org/2000/svg" width="73.801" height="27.216" viewBox="0 0 73.801 27.216">
  <g id="Group_472" data-name="Group 472" transform="translate(162 281)">
    <rect id="Rectangle_381" data-name="Rectangle 381" width="3.211" height="7.544" transform="translate(-139.242 -264.894)" fill="#245099"/>
    <path id="Path_259" data-name="Path 259" d="M9.439,46.981,8.068,44.145l-.777.41a4.89,4.89,0,0,1-2.245.53,1.721,1.721,0,0,1-1.484-.566,2.347,2.347,0,0,1-.3-1.159H4.375c1.59,0,2.74,0,3.869-.807a3.426,3.426,0,0,0,1.437-2.832,3.823,3.823,0,0,0-1.4-2.827,4.867,4.867,0,0,0-3.127-.986A5.027,5.027,0,0,0,.939,37.8C0,39.1,0,40.342,0,42.058A6.757,6.757,0,0,0,.989,46.4a4.878,4.878,0,0,0,4.057,1.813,8.067,8.067,0,0,0,3.654-.85ZM3.572,39.575a2.084,2.084,0,0,1,1.583-.545,1.765,1.765,0,0,1,1.072.27.72.72,0,0,1,.245.442.491.491,0,0,1-.186.408,4.442,4.442,0,0,1-1.91.173H3.286a1.5,1.5,0,0,1,.286-.748" transform="translate(-162 -305.558)" fill="#245099"/>
    <path id="Path_260" data-name="Path 260" d="M95.154,37.35a4.06,4.06,0,0,0-2.814-1.031,4.443,4.443,0,0,0-3.075,1.166c-1.343,1.29-1.343,2.981-1.343,4.616v6.388h3.21V42.1c0-1.225,0-2.035.38-2.39a1.41,1.41,0,0,1,1.658,0c.38.355.38,1.164.38,2.389v6.388h3.21V42.1c0-1.225,0-2.035.38-2.39a1.408,1.408,0,0,1,1.657,0c.38.355.38,1.164.38,2.389v6.388h3.209V42.1c0-1.635,0-3.326-1.341-4.614a4.448,4.448,0,0,0-3.077-1.168,4.062,4.062,0,0,0-2.814,1.031" transform="translate(-222.129 -305.839)" fill="#245099"/>
    <path id="Path_261" data-name="Path 261" d="M139.349,40.981a3.871,3.871,0,0,0-1.629,3.177,3.826,3.826,0,0,0,1.651,3.178,5.23,5.23,0,0,0,3.113.872,4.513,4.513,0,0,0,3.611-1.422c.959-1.126.959-2.4.959-3.883V41.3a5.565,5.565,0,0,0-1.077-3.958,4.566,4.566,0,0,0-3.557-1.434,10.418,10.418,0,0,0-3.577.678l-.79.284,1.043,2.979.814-.311a7.1,7.1,0,0,1,2.511-.507,1.451,1.451,0,0,1,1.119.343,1.361,1.361,0,0,1,.269.712h-.889a5.779,5.779,0,0,0-3.569.9m4.5,2.141c0,.98-.021,1.438-.211,1.656a1.58,1.58,0,0,1-1.15.308,2.367,2.367,0,0,1-1.213-.252.821.821,0,0,1-.342-.676.909.909,0,0,1,.361-.761,2.93,2.93,0,0,1,1.628-.275Z" transform="translate(-256.187 -305.559)" fill="#245099"/>
    <path id="Path_262" data-name="Path 262" d="M176.567,48.209a6.526,6.526,0,0,0,3.587-1.073l.694-.462-1.7-2.647-.722.494a3.259,3.259,0,0,1-1.857.566,1.612,1.612,0,0,1-1.263-.465,4.435,4.435,0,0,1-.487-2.649,4.185,4.185,0,0,1,.467-2.457,1.6,1.6,0,0,1,1.283-.483,3.414,3.414,0,0,1,1.776.517l.736.467,1.6-2.69-.7-.442a6.368,6.368,0,0,0-3.419-.975,4.72,4.72,0,0,0-3.735,1.589,6.51,6.51,0,0,0-1.225,4.474c0,1.379,0,3.266,1.254,4.675a4.759,4.759,0,0,0,3.706,1.562" transform="translate(-279.363 -305.559)" fill="#245099"/>
    <path id="Path_263" data-name="Path 263" d="M207.054,48.208a4.762,4.762,0,0,0,4.21-2.25,7.173,7.173,0,0,0,.749-3.9,7.172,7.172,0,0,0-.749-3.9,5.066,5.066,0,0,0-8.421,0,7.159,7.159,0,0,0-.751,3.9,7.154,7.154,0,0,0,.751,3.9,4.763,4.763,0,0,0,4.21,2.25m-1.415-8.516a1.844,1.844,0,0,1,2.831,0,4.8,4.8,0,0,1,.335,2.365,4.794,4.794,0,0,1-.336,2.365,1.844,1.844,0,0,1-2.831,0,4.814,4.814,0,0,1-.334-2.365,4.815,4.815,0,0,1,.334-2.366" transform="translate(-300.212 -305.558)" fill="#245099"/>
    <path id="Path_264" data-name="Path 264" d="M75.207,40.152A1.6,1.6,0,1,0,73.6,41.757a1.606,1.606,0,0,0,1.605-1.606" transform="translate(-211.239 -307.363)" fill="#245099"/>
    <path id="Path_265" data-name="Path 265" d="M77.646,11.48l3.538-5.14,2.694,3.913h4.4L81.184,0,73.252,11.48Z" transform="translate(-212.098 -281)" fill="#f08017"/>
    <path id="Path_266" data-name="Path 266" d="M35.63,33.624,33.606,30.6H29.149l4.218,6.3Z" transform="translate(-181.935 -301.929)" fill="#245099"/>
    <path id="Path_267" data-name="Path 267" d="M51.864,28.818,60.3,16.25H55.914l-6.25,9.2Z" transform="translate(-195.965 -292.114)" fill="#245099"/>
    <path id="Path_268" data-name="Path 268" d="M33.526,48.727l-2.2-3.366L22.851,58.239H27.3l1.512-2.257,2.511-3.749,1.635,2.441h4.45Z" transform="translate(-177.628 -312.023)" fill="#f08017"/>
    <path id="Path_269" data-name="Path 269" d="M44.4,83.31h59.743V82.021H45.262Z" transform="translate(-192.364 -337.095)" fill="#f08017"/>
    <rect id="Rectangle_382" data-name="Rectangle 382" width="73.801" height="27.216" transform="translate(-162 -281)" fill="none"/>
  </g>
</svg>
