<svg xmlns="http://www.w3.org/2000/svg" width="204" height="75.231" viewBox="0 0 204 75.231">
  <g id="Group_467" data-name="Group 467" transform="translate(162 281)">
    <rect id="Rectangle_381" data-name="Rectangle 381" width="8.875" height="20.854" transform="translate(-99.093 -236.479)" fill="#fff"/>
    <path id="Path_259" data-name="Path 259" d="M26.09,66.516,22.3,58.677,20.155,59.81a13.517,13.517,0,0,1-6.205,1.466c-1.98,0-3.321-.514-4.1-1.565a6.487,6.487,0,0,1-.834-3.2h3.081c4.4,0,7.573,0,10.695-2.232a9.47,9.47,0,0,0,3.972-7.828,10.569,10.569,0,0,0-3.869-7.813,13.453,13.453,0,0,0-8.642-2.726c-5.048,0-9.3,1.9-11.654,5.222C0,44.735,0,48.163,0,52.909c0,4.239,0,8.245,2.735,11.99,2.406,3.229,6.389,5.01,11.215,5.01a22.3,22.3,0,0,0,10.1-2.349ZM9.873,46.045c1.053-1.243,2.961-1.505,4.376-1.505a4.879,4.879,0,0,1,2.962.746,1.991,1.991,0,0,1,.676,1.222,1.356,1.356,0,0,1-.513,1.128c-.626.478-2.28.478-5.281.478H9.084a4.151,4.151,0,0,1,.79-2.068" transform="translate(-162 -285.533)" fill="#fff"/>
    <path id="Path_260" data-name="Path 260" d="M107.913,39.169a11.221,11.221,0,0,0-7.779-2.85,12.282,12.282,0,0,0-8.5,3.223c-3.713,3.565-3.713,8.24-3.713,12.759V69.959h8.873V52.3c0-3.386,0-5.624,1.051-6.607a3.9,3.9,0,0,1,4.582,0c1.05.981,1.05,3.218,1.05,6.6V69.959h8.872V52.3c0-3.386,0-5.624,1.05-6.606a3.892,3.892,0,0,1,4.581,0c1.051.981,1.051,3.218,1.051,6.6V69.959h8.87V52.3c0-4.52,0-9.195-3.706-12.754a12.3,12.3,0,0,0-8.5-3.229,11.227,11.227,0,0,0-7.779,2.85" transform="translate(-173.1 -285.585)" fill="#fff"/>
    <path id="Path_261" data-name="Path 261" d="M142.222,49.929a10.7,10.7,0,0,0-4.5,8.782,10.576,10.576,0,0,0,4.564,8.786,14.458,14.458,0,0,0,8.6,2.412c4.385,0,7.744-1.321,9.982-3.932,2.65-3.111,2.65-6.644,2.65-10.734v-4.43c0-3.381,0-7.589-2.978-10.941-2.282-2.593-5.683-3.962-9.832-3.962a28.8,28.8,0,0,0-9.888,1.873l-2.184.786,2.883,8.233,2.249-.859a19.619,19.619,0,0,1,6.941-1.4,4.012,4.012,0,0,1,3.094.947,3.762,3.762,0,0,1,.743,1.967h-2.459c-2.567,0-6.445,0-9.866,2.474m12.427,5.919c-.005,2.708-.059,3.976-.582,4.578-.464.548-1.591.851-3.18.851a6.543,6.543,0,0,1-3.354-.7,2.27,2.27,0,0,1-.945-1.869,2.513,2.513,0,0,1,1-2.1c1.061-.76,2.732-.76,4.5-.76Z" transform="translate(-179.386 -285.533)" fill="#fff"/>
    <path id="Path_262" data-name="Path 262" d="M185.317,69.909a18.039,18.039,0,0,0,9.915-2.966l1.919-1.277-4.7-7.316-2,1.365a9.01,9.01,0,0,1-5.133,1.563,4.456,4.456,0,0,1-3.492-1.285c-1.346-1.553-1.346-4.619-1.346-7.322,0-2.232,0-5.291,1.292-6.793a4.432,4.432,0,0,1,3.546-1.336,9.436,9.436,0,0,1,4.91,1.43l2.034,1.29,4.435-7.435L194.769,38.6a17.6,17.6,0,0,0-9.451-2.695A13.047,13.047,0,0,0,174.994,40.3c-3.387,3.9-3.387,8.994-3.387,12.368,0,3.81,0,9.028,3.466,12.922a13.155,13.155,0,0,0,10.244,4.317" transform="translate(-183.664 -285.533)" fill="#fff"/>
    <path id="Path_263" data-name="Path 263" d="M215.807,69.908a13.163,13.163,0,0,0,11.638-6.219c2.069-3.432,2.069-7.168,2.069-10.781s0-7.354-2.069-10.783a14,14,0,0,0-23.276,0c-2.075,3.432-2.075,7.17-2.075,10.786s0,7.351,2.075,10.781a13.165,13.165,0,0,0,11.638,6.219m-3.913-23.54a5.1,5.1,0,0,1,7.824,0c.926,1.384.926,3.887.926,6.537s0,5.153-.928,6.538a5.1,5.1,0,0,1-7.824,0c-.923-1.381-.923-3.886-.923-6.537s0-5.153.924-6.54" transform="translate(-187.513 -285.533)" fill="#fff"/>
    <path id="Path_264" data-name="Path 264" d="M80.87,42.982a4.436,4.436,0,1,0-4.437,4.439,4.44,4.44,0,0,0,4.437-4.439" transform="translate(-171.089 -285.866)" fill="#fff"/>
    <path id="Path_265" data-name="Path 265" d="M85.4,31.734l9.779-14.207,7.446,10.816h12.149L95.177,0,73.252,31.734Z" transform="translate(-171.248 -281)" fill="#ed6807"/>
    <path id="Path_266" data-name="Path 266" d="M47.064,38.956,41.47,30.6H29.149L40.808,48.009Z" transform="translate(-165.68 -284.864)" fill="#fff"/>
    <path id="Path_267" data-name="Path 267" d="M55.744,50.991,79.068,16.25H66.941L49.664,41.686Z" transform="translate(-168.27 -283.052)" fill="#fff"/>
    <path id="Path_268" data-name="Path 268" d="M52.359,54.666l-6.08-9.3-23.428,35.6H35.156l4.179-6.238,6.942-10.364L50.8,71.1H63.1Z" transform="translate(-164.885 -286.727)" fill="#ed6807"/>
    <path id="Path_269" data-name="Path 269" d="M44.4,85.585H209.539V82.021H46.786Z" transform="translate(-167.605 -291.355)" fill="#ed6807"/>
    <rect id="Rectangle_382" data-name="Rectangle 382" width="204" height="75.23" transform="translate(-162 -281)" fill="none"/>
  </g>
</svg>
