<svg xmlns="http://www.w3.org/2000/svg" width="40.863" height="29.294" viewBox="0 0 40.863 29.294">
  <g id="Group_619" data-name="Group 619" transform="translate(-9370 -1318)">
    <path id="Path_357" data-name="Path 357" d="M4.745,57.913H1.167A1.169,1.169,0,0,1,0,56.745V53.167A1.169,1.169,0,0,1,1.167,52H4.745a1.169,1.169,0,0,1,1.167,1.167v3.578A1.169,1.169,0,0,1,4.745,57.913ZM1.167,53.075a.092.092,0,0,0-.092.092v3.578a.092.092,0,0,0,.092.092H4.745a.092.092,0,0,0,.092-.092V53.167a.092.092,0,0,0-.092-.092Z" transform="translate(9370 1266)" fill="#fff"/>
    <path id="Path_365" data-name="Path 365" d="M4.745,57.913H1.167A1.169,1.169,0,0,1,0,56.745V53.167A1.169,1.169,0,0,1,1.167,52H4.745a1.169,1.169,0,0,1,1.167,1.167v3.578A1.169,1.169,0,0,1,4.745,57.913ZM1.167,53.075a.092.092,0,0,0-.092.092v3.578a.092.092,0,0,0,.092.092H4.745a.092.092,0,0,0,.092-.092V53.167a.092.092,0,0,0-.092-.092Z" transform="translate(9370 1281.588)" fill="#fff"/>
    <path id="Path_358" data-name="Path 358" d="M4.745,289.913H1.167A1.169,1.169,0,0,1,0,288.745v-3.578A1.169,1.169,0,0,1,1.167,284H4.745a1.169,1.169,0,0,1,1.167,1.167v3.578A1.169,1.169,0,0,1,4.745,289.913Zm-3.578-4.838a.092.092,0,0,0-.092.092v3.578a.092.092,0,0,0,.092.092H4.745a.092.092,0,0,0,.092-.092v-3.578a.092.092,0,0,0-.092-.092Z" transform="translate(9370 1041.794)" fill="#fff"/>
    <path id="Path_366" data-name="Path 366" d="M4.745,289.913H1.167A1.169,1.169,0,0,1,0,288.745v-3.578A1.169,1.169,0,0,1,1.167,284H4.745a1.169,1.169,0,0,1,1.167,1.167v3.578A1.169,1.169,0,0,1,4.745,289.913Zm-3.578-4.838a.092.092,0,0,0-.092.092v3.578a.092.092,0,0,0,.092.092H4.745a.092.092,0,0,0,.092-.092v-3.578a.092.092,0,0,0-.092-.092Z" transform="translate(9370 1057.382)" fill="#fff"/>
    <path id="Path_359" data-name="Path 359" d="M254.066,103.537h-28.3a1.769,1.769,0,0,1,0-3.537h28.3a1.769,1.769,0,0,1,0,3.537Z" transform="translate(9155.028 1219.188)" fill="#fff"/>
    <path id="Path_364" data-name="Path 364" d="M254.066,103.537h-28.3a1.769,1.769,0,0,1,0-3.537h28.3a1.769,1.769,0,0,1,0,3.537Z" transform="translate(9155.028 1234.776)" fill="#fff"/>
    <path id="Path_360" data-name="Path 360" d="M244.339,163.537h-18.57a1.769,1.769,0,0,1,0-3.537h18.57a1.769,1.769,0,1,1,0,3.537Z" transform="translate(9155.028 1166.982)" fill="#fff"/>
    <path id="Path_363" data-name="Path 363" d="M244.339,163.537h-18.57a1.769,1.769,0,0,1,0-3.537h18.57a1.769,1.769,0,1,1,0,3.537Z" transform="translate(9155.028 1182.569)" fill="#fff"/>
  </g>
</svg>
