<svg xmlns="http://www.w3.org/2000/svg" width="39.537" height="51.191" viewBox="0 0 39.537 51.191">
  <g id="medal" transform="translate(-100.001 -54.02)">
    <path id="Path_14" data-name="Path 14" d="M139.422,54.376a.761.761,0,0,0-.644-.356h-9.521a.761.761,0,0,0-.686.431l-7.743,16.07c-.351-.022-.7-.033-1.059-.033q-.587,0-1.167.041l-8.247-16.094a.761.761,0,0,0-.677-.413h-8.917a.76.76,0,0,0-.684,1.091l9.149,18.955a17.361,17.361,0,1,0,21.087,0l9.149-18.956a.759.759,0,0,0-.041-.735Zm-37.449,1.165h7.242l7.774,15.17a17.254,17.254,0,0,0-6.5,2.472l-8.516-17.641ZM135.61,87.849a15.84,15.84,0,1,1-15.84-15.84A15.858,15.858,0,0,1,135.61,87.849Zm-6.559-14.666a17.238,17.238,0,0,0-6.616-2.491l7.3-15.151h7.831Z" transform="translate(0 0)" fill="#f08017"/>
    <path id="Path_15" data-name="Path 15" d="M342.616,315.73a11.7,11.7,0,0,1-.864,4.438.761.761,0,0,0,1.409.573,13.231,13.231,0,0,0,.976-5.011.76.76,0,0,0-1.521,0Z" transform="translate(-211.067 -227.882)" fill="#f08017"/>
    <path id="Path_16" data-name="Path 16" d="M151.04,229.32A13.3,13.3,0,0,0,171.8,240.33a.76.76,0,1,0-.854-1.257,11.779,11.779,0,1,1,4.326-14.144.761.761,0,1,0,1.412-.568,13.3,13.3,0,0,0-25.646,4.959Z" transform="translate(-44.571 -141.471)" fill="#f08017"/>
    <path id="Path_17" data-name="Path 17" d="M205.236,262.484l-4.957-.72-2.216-4.491a.761.761,0,0,0-1.364,0l-2.216,4.491-4.957.72a.76.76,0,0,0-.421,1.3l3.586,3.5-.846,4.937a.761.761,0,0,0,1.1.8l4.434-2.33,4.434,2.33a.761.761,0,0,0,1.1-.8l-.847-4.937,3.586-3.5a.76.76,0,0,0-.421-1.3Zm-4.513,3.983a.764.764,0,0,0-.219.673l.654,3.812-3.424-1.8a.759.759,0,0,0-.707,0l-3.424,1.8.654-3.812a.76.76,0,0,0-.219-.673l-2.77-2.7,3.828-.556a.762.762,0,0,0,.573-.416l1.712-3.468,1.712,3.468a.758.758,0,0,0,.573.416l3.828.556Z" transform="translate(-77.611 -177.127)" fill="#f08017"/>
  </g>
</svg>
