<svg id="place" xmlns="http://www.w3.org/2000/svg" width="53.424" height="53.424" viewBox="0 0 53.424 53.424">
  <g id="Group_40" data-name="Group 40" transform="translate(12.956 16.272)">
    <g id="Group_39" data-name="Group 39">
      <path id="Path_27" data-name="Path 27" d="M150.235,155.95a14.4,14.4,0,0,0-13.247,20.039H126.254v-5.427a1.043,1.043,0,0,0-2.087,0v6.47a1.043,1.043,0,0,0,1.043,1.043h12.875a14.29,14.29,0,0,0,.967,1.345q.024.037.051.072l8.993,11.522h-4.891a1.043,1.043,0,0,0,0,2.087H157.3a1.043,1.043,0,1,0,0-2.087h-4.925l9.044-11.592.011-.014a14.4,14.4,0,0,0-11.192-23.458Zm9.549,22.172-.037.049-9.512,12.192-9.414-12.06a1.045,1.045,0,0,0-.083-.116,12.313,12.313,0,1,1,19.046-.064Z" transform="translate(-124.167 -155.95)" fill="#f08017"/>
    </g>
  </g>
  <g id="Group_42" data-name="Group 42" transform="translate(30.468 22.33)">
    <g id="Group_41" data-name="Group 41">
      <path id="Path_28" data-name="Path 28" d="M308.7,219.93a1.043,1.043,0,1,0-1.987.639,6.47,6.47,0,1,1-4.413-4.243,1.043,1.043,0,0,0,.561-2.01,8.556,8.556,0,1,0,5.839,5.614Z" transform="translate(-291.997 -214.002)" fill="#f08017"/>
    </g>
  </g>
  <g id="Group_44" data-name="Group 44" transform="translate(43.293 24.529)">
    <g id="Group_43" data-name="Group 43">
      <path id="Path_29" data-name="Path 29" d="M416.7,235.4l-.009-.009a1.043,1.043,0,0,0-1.476,1.476l.009.009A1.043,1.043,0,0,0,416.7,235.4Z" transform="translate(-414.908 -235.08)" fill="#f08017"/>
    </g>
  </g>
  <g id="Group_46" data-name="Group 46" transform="translate(0 43.824)">
    <g id="Group_45" data-name="Group 45">
      <path id="Path_30" data-name="Path 30" d="M24.451,420H1.043a1.043,1.043,0,0,0,0,2.087H23.408v6.469a1.043,1.043,0,1,0,2.087,0v-7.513A1.043,1.043,0,0,0,24.451,420Z" transform="translate(0 -420)" fill="#f08017"/>
    </g>
  </g>
  <g id="Group_48" data-name="Group 48">
    <g id="Group_47" data-name="Group 47">
      <path id="Path_31" data-name="Path 31" d="M19.041,0A1.043,1.043,0,0,0,18,1.043V8.557H1.043a1.043,1.043,0,0,0,0,2.087h18A1.043,1.043,0,0,0,20.084,9.6V1.043A1.043,1.043,0,0,0,19.041,0Z" fill="#f08017"/>
    </g>
  </g>
  <g id="Group_50" data-name="Group 50" transform="translate(0 16.069)">
    <g id="Group_49" data-name="Group 49">
      <path id="Path_32" data-name="Path 32" d="M8.958,154.006H1.043a1.043,1.043,0,0,0,0,2.087H7.915v18.155H1.043a1.043,1.043,0,0,0,0,2.087H8.958A1.043,1.043,0,0,0,10,175.291V155.049A1.043,1.043,0,0,0,8.958,154.006Z" transform="translate(0 -154.006)" fill="#f08017"/>
    </g>
  </g>
  <g id="Group_52" data-name="Group 52" transform="translate(12.956 26.19)">
    <g id="Group_51" data-name="Group 51">
      <path id="Path_33" data-name="Path 33" d="M125.951,251.306a1.043,1.043,0,1,0,.306.738A1.051,1.051,0,0,0,125.951,251.306Z" transform="translate(-124.17 -251)" fill="#f08017"/>
    </g>
  </g>
  <g id="Group_54" data-name="Group 54" transform="translate(12.956 16.069)">
    <g id="Group_53" data-name="Group 53">
      <path id="Path_34" data-name="Path 34" d="M137.923,154.006H125.21a1.043,1.043,0,0,0-1.043,1.043v5.79a1.043,1.043,0,0,0,2.087,0v-4.747h11.669a1.043,1.043,0,0,0,0-2.087Z" transform="translate(-124.167 -154.006)" fill="#f08017"/>
    </g>
  </g>
  <g id="Group_56" data-name="Group 56" transform="translate(23.038)">
    <g id="Group_55" data-name="Group 55">
      <path id="Path_35" data-name="Path 35" d="M239.495,0a1.043,1.043,0,0,0-1.043,1.043V8.556H222.883V1.043a1.043,1.043,0,1,0-2.087,0V9.6a1.043,1.043,0,0,0,1.044,1.043h17.655A1.043,1.043,0,0,0,240.538,9.6V1.043A1.043,1.043,0,0,0,239.495,0Z" transform="translate(-220.796)" fill="#f08017"/>
    </g>
  </g>
  <g id="Group_58" data-name="Group 58" transform="translate(45.702)">
    <g id="Group_57" data-name="Group 57">
      <path id="Path_36" data-name="Path 36" d="M444.678,8.557h-4.591V1.043a1.043,1.043,0,0,0-2.087,0V9.6a1.043,1.043,0,0,0,1.043,1.043h5.634a1.043,1.043,0,1,0,0-2.087Z" transform="translate(-438)" fill="#f08017"/>
    </g>
  </g>
  <g id="Group_60" data-name="Group 60" transform="translate(48.042 16.069)">
    <g id="Group_59" data-name="Group 59">
      <path id="Path_37" data-name="Path 37" d="M464.761,154.006h-3.295a1.043,1.043,0,1,0,0,2.087h3.295a1.043,1.043,0,1,0,0-2.087Z" transform="translate(-460.423 -154.006)" fill="#f08017"/>
    </g>
  </g>
</svg>
