<svg xmlns="http://www.w3.org/2000/svg" width="20.795" height="24.26" viewBox="0 0 20.795 24.26">
  <path id="Icon_metro-file-pdf" data-name="Icon metro-file-pdf" d="M22.445,7.348a3.15,3.15,0,0,1,.65,1.029,3.124,3.124,0,0,1,.271,1.191v15.6a1.294,1.294,0,0,1-1.3,1.3H3.87a1.294,1.294,0,0,1-1.3-1.3V3.5a1.294,1.294,0,0,1,1.3-1.3H16a3.125,3.125,0,0,1,1.191.271,3.15,3.15,0,0,1,1.029.65Zm-6.011-3.3v5.09h5.09a1.479,1.479,0,0,0-.3-.555L16.989,4.342a1.479,1.479,0,0,0-.555-.3Zm5.2,20.686V10.868H16a1.294,1.294,0,0,1-1.3-1.3V3.936H4.3V24.731H21.632ZM14.674,16.7a10.3,10.3,0,0,0,1.137.758,13.434,13.434,0,0,1,1.584-.095q1.99,0,2.4.663a.654.654,0,0,1,.027.7.039.039,0,0,1-.014.027l-.027.027V18.8q-.081.514-.961.514a5.585,5.585,0,0,1-1.557-.271,9.871,9.871,0,0,1-1.76-.718,24.378,24.378,0,0,0-5.307,1.124Q8.121,23,6.916,23a.787.787,0,0,1-.379-.095l-.325-.162q-.014-.014-.081-.068a.559.559,0,0,1-.081-.487,2.94,2.94,0,0,1,.758-1.239A6.543,6.543,0,0,1,8.6,19.641a.2.2,0,0,1,.311.081.078.078,0,0,1,.027.054q.7-1.151,1.449-2.667a20.663,20.663,0,0,0,1.408-3.547,10.944,10.944,0,0,1-.413-2.159,5.264,5.264,0,0,1,.088-1.726q.149-.542.569-.542h.3a.571.571,0,0,1,.474.2,1.081,1.081,0,0,1,.122.921.294.294,0,0,1-.054.108.352.352,0,0,1,.014.108v.406a17.728,17.728,0,0,1-.19,2.6A6.849,6.849,0,0,0,14.674,16.7Zm-7.8,5.564a5.978,5.978,0,0,0,1.855-2.139,7.717,7.717,0,0,0-1.185,1.137A4.5,4.5,0,0,0,6.876,22.267ZM12.264,9.812a4.026,4.026,0,0,0-.027,1.787q.014-.095.095-.6,0-.041.095-.582a.3.3,0,0,1,.054-.108.039.039,0,0,1-.014-.027.027.027,0,0,0-.007-.02.027.027,0,0,1-.007-.02.779.779,0,0,0-.176-.487.039.039,0,0,1-.014.027v.027Zm-1.679,8.949a19.858,19.858,0,0,1,3.845-1.1,2.041,2.041,0,0,1-.176-.129,2.425,2.425,0,0,1-.217-.183,7.171,7.171,0,0,1-1.719-2.383,18.091,18.091,0,0,1-1.124,2.667q-.406.758-.609,1.124Zm8.746-.217a3.24,3.24,0,0,0-1.9-.325,5.121,5.121,0,0,0,1.679.379,1.313,1.313,0,0,0,.244-.014q0-.014-.027-.041Z" transform="translate(-2.571 -2.203)" fill="#fff"/>
</svg>
