<svg id="Group_154" data-name="Group 154" xmlns="http://www.w3.org/2000/svg" xmlns:xlink="http://www.w3.org/1999/xlink" width="59.999" height="59.999" viewBox="0 0 59.999 59.999">
  <defs>
    <linearGradient id="linear-gradient" x1="0.719" y1="-0.281" x2="0.527" y2="1.318" gradientUnits="objectBoundingBox">
      <stop offset="0" stop-color="#fff"/>
      <stop offset="0.553" stop-color="#fff"/>
      <stop offset="1" stop-color="#fff"/>
    </linearGradient>
  </defs>
  <g id="Group_150" data-name="Group 150">
    <path id="Subtraction_13" data-name="Subtraction 13" d="M30,60A30.008,30.008,0,0,1,18.323,2.358,30.008,30.008,0,0,1,41.677,57.642,29.814,29.814,0,0,1,30,60ZM29.971,3.125A26.814,26.814,0,0,0,3.188,29.909v.183a26.783,26.783,0,0,0,53.566,0v-.183A26.814,26.814,0,0,0,29.971,3.125Z" fill="url(#linear-gradient)"/>
    <g id="Group_145" data-name="Group 145" transform="translate(18.003 17)">
      <path id="Icon_ionic-ios-search" data-name="Icon ionic-ios-search" d="M28.213,26.756,21.539,20.02A9.51,9.51,0,1,0,20.1,21.482l6.63,6.692a1.027,1.027,0,0,0,1.45.037A1.034,1.034,0,0,0,28.213,26.756ZM14.066,21.564a7.509,7.509,0,1,1,5.311-2.2A7.463,7.463,0,0,1,14.066,21.564Z" transform="translate(-4.5 -4.493)" fill="#fff"/>
    </g>
  </g>
</svg>
