<svg xmlns="http://www.w3.org/2000/svg" width="47.95" height="47.797" viewBox="0 0 47.95 47.797">
  <g id="sketch_1_" data-name="sketch (1)" transform="translate(0)">
    <g id="Group_36" data-name="Group 36" transform="translate(33.763 33.708)">
      <g id="Group_35" data-name="Group 35">
        <path id="Path_18" data-name="Path 18" d="M369.182,360.8a.7.7,0,0,0-.767.152l-7.691,7.691a.7.7,0,0,0,.5,1.2h7.691a.7.7,0,0,0,.7-.7v-7.691A.7.7,0,0,0,369.182,360.8Zm-6.262,7.638,5.289-5.289v5.289Z" transform="translate(-360.517 -360.749)" fill="#f08017"/>
      </g>
    </g>
    <g id="Group_38" data-name="Group 38" transform="translate(0 0)">
      <g id="Group_37" data-name="Group 37">
        <path id="Path_19" data-name="Path 19" d="M47.516,23.3a.7.7,0,0,0-.767.152l-2.108,2.108V11.23a.7.7,0,0,0-.7-.7H38.53l1.963-1.963h0l1.891-1.891a2.146,2.146,0,0,0,0-3.035L40.2,1.448a2.146,2.146,0,0,0-3.035,0L35.27,3.341,32.984,5.627l-4.9,4.9H6.239V3.563a.7.7,0,0,0-.7-.7A5.542,5.542,0,0,0,0,8.395V38.288a.705.705,0,0,0,.017.151,5.331,5.331,0,0,0,5.315,4.926H26.838l-4.05,4.05a.7.7,0,0,0,.5,1.2H47.247a.7.7,0,0,0,.7-.7V23.951A.7.7,0,0,0,47.516,23.3ZM38.158,2.444a.739.739,0,0,1,1.044,0L41.39,4.631a.739.739,0,0,1,0,1.044L40,7.07,36.764,3.839Zm-2.39,2.39L39,8.065,37.708,9.357,34.477,6.125ZM46.543,31.86h-1.3a.7.7,0,0,0,0,1.408h1.3v2.121h-1.3a.7.7,0,0,0,0,1.408h1.3v2.121h-1.3a.7.7,0,1,0,0,1.408h1.3v2.121h-1.3a.7.7,0,0,0,0,1.408h1.3v3.357H24.984L32.093,40.1a.7.7,0,0,0-1-1l-2.852,2.852H5.331a3.9,3.9,0,0,1-3.921-3.8q.006-.2.031-.4v0q.012-.093.028-.186l0-.021q.015-.082.033-.164l.01-.045q.016-.069.035-.137c.007-.025.014-.049.021-.074s.021-.071.032-.107.023-.07.036-.105.017-.049.026-.073c.017-.046.035-.092.054-.137l.016-.039c.024-.056.049-.112.075-.167l0-.007A4.143,4.143,0,0,1,4.7,34.246l.011,0c.058-.012.117-.022.176-.032l.03-.005c.053-.008.108-.015.162-.021l.046-.006c.052-.005.1-.009.157-.012l.05,0q.1-.005.208-.005a.7.7,0,0,0,.7-.7v-5.1a.7.7,0,0,0-1.408,0V32.8a5.5,5.5,0,0,0-3.161,1.53c-.091.089-.178.182-.263.277V8.395A4.135,4.135,0,0,1,4.831,4.327V25.538h0a.7.7,0,1,0,1.408,0h0v-13.6H26.678l-3.891,3.891a.7.7,0,0,0,1,1l5.092-5.092h0l4.606-4.606,3.231,3.232-.379.379h0L22.142,24.923,18.91,21.692l2.8-2.8a.7.7,0,1,0-1-1l-3.3,3.295a.707.707,0,0,0-.05.055l-.015.02c-.01.013-.02.027-.029.04l-.015.025c-.008.013-.015.026-.022.04l-.013.027c-.006.014-.012.028-.017.042l-.006.015L15.88,25.342l-.935,2.648a.711.711,0,0,0-.028.107H12.577a.7.7,0,0,0,0,1.408H32.067a.7.7,0,0,0,0-1.408H18.084l4.292-1.515.01,0,.049-.021.019-.009.05-.028.016-.009c.017-.011.033-.023.05-.035l.012-.009a.706.706,0,0,0,.057-.051L37.122,11.934h6.111V26.969L33.166,37.037a.7.7,0,0,0,0,1,.72.72,0,0,0,.053.048.7.7,0,0,0,.942-.048h0L46.543,25.65ZM20.854,25.626l-2.016.712L17.5,24.995l.712-2.016Z" transform="translate(0 -0.82)" fill="#f08017"/>
      </g>
    </g>
  </g>
</svg>
