<svg xmlns="http://www.w3.org/2000/svg" xmlns:xlink="http://www.w3.org/1999/xlink" width="186.727" height="239.374" viewBox="0 0 186.727 239.374">
  <defs>
    <linearGradient id="linear-gradient" x1="1.152" y1="1.078" x2="1.152" y2="0.078" gradientUnits="objectBoundingBox">
      <stop offset="0" stop-color="#85480f"/>
      <stop offset="0.111" stop-color="#995210"/>
      <stop offset="0.402" stop-color="#c86b14"/>
      <stop offset="0.625" stop-color="#e57a16"/>
      <stop offset="0.753" stop-color="#f08017"/>
      <stop offset="1" stop-color="#f08017"/>
    </linearGradient>
    <linearGradient id="linear-gradient-2" x1="0.5" x2="0.5" y2="1" gradientUnits="objectBoundingBox">
      <stop offset="0" stop-color="#ffe874"/>
      <stop offset="1" stop-color="#ffc400"/>
    </linearGradient>
    <clipPath id="clip-path">
      <rect id="Rectangle_525" data-name="Rectangle 525" width="127.343" height="79.586" transform="translate(0 0)" fill="none"/>
    </clipPath>
  </defs>
  <g id="Group_725" data-name="Group 725" transform="translate(-1442 -296.626)">
    <g id="pomar" transform="translate(1442 296.626)">
      <path id="Path_247" data-name="Path 247" d="M186.727,0c-7.954,0-3.788,202.635-3.788,239.374L93.174,199.226,3.788,239.374C3.788,202.635,7.954,0,0,0Z" fill="url(#linear-gradient)"/>
    </g>
    <g id="Group_146" data-name="Group 146" transform="translate(1478 358.276)">
      <path id="Icon_ionic-md-star" data-name="Icon ionic-md-star" d="M13.969,20.045l6.286,3.793-1.663-7.154,5.549-4.81-7.315-.628L13.969,4.5l-2.857,6.745L3.8,11.873l5.549,4.81L7.683,23.837Z" transform="translate(-3.797 -4.5)" fill="url(#linear-gradient-2)"/>
      <path id="Icon_ionic-md-star-2" data-name="Icon ionic-md-star" d="M13.969,20.045l6.286,3.793-1.663-7.154,5.549-4.81-7.315-.628L13.969,4.5l-2.857,6.745L3.8,11.873l5.549,4.81L7.683,23.837Z" transform="translate(19.838 -4.5)" fill="url(#linear-gradient-2)"/>
      <path id="Icon_ionic-md-star-3" data-name="Icon ionic-md-star" d="M13.969,20.045l6.286,3.793-1.663-7.154,5.549-4.81-7.315-.628L13.969,4.5l-2.857,6.745L3.8,11.873l5.549,4.81L7.683,23.837Z" transform="translate(43.472 -4.5)" fill="url(#linear-gradient-2)"/>
      <path id="Icon_ionic-md-star-4" data-name="Icon ionic-md-star" d="M13.969,20.045l6.286,3.793-1.663-7.154,5.549-4.81-7.315-.628L13.969,4.5l-2.857,6.745L3.8,11.873l5.549,4.81L7.683,23.837Z" transform="translate(67.107 -4.5)" fill="url(#linear-gradient-2)"/>
      <path id="Icon_ionic-md-star-5" data-name="Icon ionic-md-star" d="M13.969,20.045l6.286,3.793-1.663-7.154,5.549-4.81-7.315-.628L13.969,4.5l-2.857,6.745L3.8,11.873l5.549,4.81L7.683,23.837Z" transform="translate(90.741 -4.5)" fill="url(#linear-gradient-2)"/>
    </g>
    <g id="Group_474" data-name="Group 474" transform="translate(1655 593.908)">
      <rect id="Rectangle_381" data-name="Rectangle 381" width="3.724" height="8.75" transform="translate(-135.604 -262.319)" fill="#fff"/>
      <path id="Path_259" data-name="Path 259" d="M10.947,48.751l-1.59-3.289-.9.476a5.671,5.671,0,0,1-2.6.615A2,2,0,0,1,4.132,45.9a2.722,2.722,0,0,1-.35-1.345H5.074c1.844,0,3.178,0,4.487-.936a3.974,3.974,0,0,0,1.667-3.285,4.435,4.435,0,0,0-1.623-3.278,5.645,5.645,0,0,0-3.626-1.144A5.831,5.831,0,0,0,1.089,38.1C0,39.612,0,41.05,0,43.041,0,44.82,0,46.5,1.148,48.072a5.657,5.657,0,0,0,4.706,2.1,9.356,9.356,0,0,0,4.238-.985Zm-6.8-8.589a2.417,2.417,0,0,1,1.836-.632,2.047,2.047,0,0,1,1.243.313.836.836,0,0,1,.284.513.569.569,0,0,1-.215.473,5.151,5.151,0,0,1-2.216.2H3.811a1.742,1.742,0,0,1,.331-.868" transform="translate(-162 -303.743)" fill="#fff"/>
      <path id="Path_260" data-name="Path 260" d="M96.31,37.515a4.708,4.708,0,0,0-3.264-1.2,5.153,5.153,0,0,0-3.567,1.352c-1.558,1.5-1.558,3.457-1.558,5.354v7.409h3.723V43.025c0-1.421,0-2.36.441-2.772a1.635,1.635,0,0,1,1.923,0c.441.412.441,1.35.441,2.771v7.409h3.723V43.025c0-1.421,0-2.36.441-2.772a1.633,1.633,0,0,1,1.922,0c.441.412.441,1.35.441,2.771v7.409H104.7V43.025c0-1.9,0-3.858-1.555-5.352a5.159,5.159,0,0,0-3.568-1.355,4.711,4.711,0,0,0-3.264,1.2" transform="translate(-217.687 -304.004)" fill="#fff"/>
      <path id="Path_261" data-name="Path 261" d="M139.609,41.792a4.49,4.49,0,0,0-1.889,3.685,4.437,4.437,0,0,0,1.915,3.686,6.066,6.066,0,0,0,3.61,1.012,5.235,5.235,0,0,0,4.188-1.65c1.112-1.306,1.112-2.788,1.112-4.5V42.163a6.454,6.454,0,0,0-1.249-4.591,5.3,5.3,0,0,0-4.126-1.663,12.083,12.083,0,0,0-4.149.786l-.917.33,1.209,3.455.944-.36a8.232,8.232,0,0,1,2.912-.588,1.683,1.683,0,0,1,1.3.4,1.578,1.578,0,0,1,.312.825h-1.032a6.7,6.7,0,0,0-4.14,1.038m5.215,2.484c0,1.136-.025,1.668-.244,1.921a1.833,1.833,0,0,1-1.334.357,2.745,2.745,0,0,1-1.407-.292.953.953,0,0,1-.4-.784,1.054,1.054,0,0,1,.419-.882,3.4,3.4,0,0,1,1.888-.319Z" transform="translate(-249.228 -303.744)" fill="#fff"/>
      <path id="Path_262" data-name="Path 262" d="M177.36,50.175a7.569,7.569,0,0,0,4.16-1.245l.805-.536-1.974-3.07-.838.573a3.78,3.78,0,0,1-2.154.656,1.87,1.87,0,0,1-1.465-.539c-.565-.651-.565-1.938-.565-3.072a4.854,4.854,0,0,1,.542-2.85,1.86,1.86,0,0,1,1.488-.561,3.959,3.959,0,0,1,2.06.6l.854.541,1.861-3.12-.809-.513a7.386,7.386,0,0,0-3.966-1.131,5.474,5.474,0,0,0-4.332,1.843c-1.421,1.634-1.421,3.774-1.421,5.19,0,1.6,0,3.788,1.454,5.422a5.52,5.52,0,0,0,4.3,1.812" transform="translate(-270.691 -303.744)" fill="#fff"/>
      <path id="Path_263" data-name="Path 263" d="M207.847,50.175a5.523,5.523,0,0,0,4.883-2.609,8.32,8.32,0,0,0,.868-4.524,8.318,8.318,0,0,0-.868-4.525,5.875,5.875,0,0,0-9.767,0,8.3,8.3,0,0,0-.871,4.526,8.3,8.3,0,0,0,.871,4.524,5.524,5.524,0,0,0,4.883,2.609M206.205,40.3a2.139,2.139,0,0,1,3.283,0,5.569,5.569,0,0,1,.389,2.743,5.561,5.561,0,0,1-.389,2.743,2.138,2.138,0,0,1-3.283,0,5.583,5.583,0,0,1-.387-2.743,5.585,5.585,0,0,1,.388-2.744" transform="translate(-290.001 -303.743)" fill="#fff"/>
      <path id="Path_264" data-name="Path 264" d="M75.72,40.408a1.862,1.862,0,1,0-1.862,1.862,1.863,1.863,0,0,0,1.862-1.862" transform="translate(-207.601 -305.415)" fill="#fff"/>
      <path id="Path_265" data-name="Path 265" d="M78.348,13.315l4.1-5.961,3.124,4.538h5.1L82.452,0l-9.2,13.315Z" transform="translate(-208.396 -281)" fill="#fff"/>
      <path id="Path_266" data-name="Path 266" d="M36.666,34.108l-2.347-3.5h-5.17l4.892,7.3Z" transform="translate(-180.462 -300.383)" fill="#fff"/>
      <path id="Path_267" data-name="Path 267" d="M52.215,30.827,62,16.25H56.913L49.664,26.923Z" transform="translate(-193.456 -291.293)" fill="#fff"/>
      <path id="Path_268" data-name="Path 268" d="M35.232,49.265l-2.551-3.9L22.851,60.3h5.163l1.754-2.617,2.913-4.349,1.9,2.831h5.161Z" transform="translate(-176.473 -309.731)" fill="#fff"/>
      <path id="Path_269" data-name="Path 269" d="M44.4,83.517h69.293v-1.5H45.4Z" transform="translate(-190.121 -332.95)" fill="#fff"/>
      <rect id="Rectangle_382" data-name="Rectangle 382" width="85.598" height="31.566" transform="translate(-162 -281)" fill="none"/>
    </g>
    <g id="Group_724" data-name="Group 724" transform="translate(1472 395)">
      <path id="Path_383" data-name="Path 383" d="M.042.728V2.492H5.4L0,9.142v1.386H8.106V8.764H2.646l5.4-6.65V.728Z" fill="#fff"/>
      <g id="Group_723" data-name="Group 723">
        <g id="Group_722" data-name="Group 722" clip-path="url(#clip-path)">
          <path id="Path_384" data-name="Path 384" d="M11.564,10.654a3.173,3.173,0,0,1-1.386-.287,2.265,2.265,0,0,1-.938-.791A2.045,2.045,0,0,1,8.9,8.414a1.906,1.906,0,0,1,.791-1.631A3.612,3.612,0,0,1,11.872,6.2a5.414,5.414,0,0,1,1.792.294V5.964a1.158,1.158,0,0,0-.392-.951,1.771,1.771,0,0,0-1.148-.323,3.74,3.74,0,0,0-.994.147A9.237,9.237,0,0,0,9.9,5.292L9.2,3.878a9.763,9.763,0,0,1,1.659-.588A6.614,6.614,0,0,1,12.446,3.1a3.389,3.389,0,0,1,2.289.707A2.489,2.489,0,0,1,15.554,5.8v4.732h-1.89v-.517a3.08,3.08,0,0,1-.966.489,4,4,0,0,1-1.134.154m-.84-2.282a.762.762,0,0,0,.364.665,1.7,1.7,0,0,0,.966.245,3.1,3.1,0,0,0,.882-.119,2.319,2.319,0,0,0,.728-.356V7.742a3.878,3.878,0,0,0-.728-.21,4.433,4.433,0,0,0-.812-.07,1.855,1.855,0,0,0-1.029.245.762.762,0,0,0-.371.665" fill="#fff"/>
          <path id="Path_385" data-name="Path 385" d="M19.768,10.668a2.951,2.951,0,0,1-1.491-.371,2.671,2.671,0,0,1-1.022-1.028,3.032,3.032,0,0,1-.371-1.513V3.234H18.8V7.477a1.528,1.528,0,0,0,.413,1.12,1.493,1.493,0,0,0,1.113.42,1.93,1.93,0,0,0,.861-.19,1.685,1.685,0,0,0,.637-.539V3.234h1.918v7.294H21.826V9.94a3.029,3.029,0,0,1-2.058.728" fill="#fff"/>
          <path id="Path_386" data-name="Path 386" d="M26.362,10.528V4.83H24.738v-1.6h1.624v-.7A2.42,2.42,0,0,1,27.076.651,2.951,2.951,0,0,1,29.134,0c.2,0,.4.009.6.028a2.652,2.652,0,0,1,.532.1v1.61q-.266-.055-.462-.084a3.044,3.044,0,0,0-.434-.028,1.243,1.243,0,0,0-.819.231.894.894,0,0,0-.273.721v.658h1.988v1.6H28.28v5.7Z" fill="#fff"/>
          <path id="Path_387" data-name="Path 387" d="M33.334,10.654a3.173,3.173,0,0,1-1.386-.287,2.265,2.265,0,0,1-.938-.791,2.045,2.045,0,0,1-.336-1.162,1.906,1.906,0,0,1,.791-1.631A3.612,3.612,0,0,1,33.642,6.2a5.414,5.414,0,0,1,1.792.294V5.964a1.158,1.158,0,0,0-.392-.951,1.771,1.771,0,0,0-1.148-.323,3.74,3.74,0,0,0-.994.147,9.237,9.237,0,0,0-1.232.455l-.7-1.414a9.763,9.763,0,0,1,1.659-.588A6.614,6.614,0,0,1,34.216,3.1a3.389,3.389,0,0,1,2.289.707A2.489,2.489,0,0,1,37.324,5.8v4.732h-1.89v-.517a3.08,3.08,0,0,1-.966.489,4,4,0,0,1-1.134.154m-.84-2.282a.762.762,0,0,0,.364.665,1.7,1.7,0,0,0,.966.245,3.1,3.1,0,0,0,.882-.119,2.318,2.318,0,0,0,.728-.356V7.742a3.878,3.878,0,0,0-.728-.21,4.433,4.433,0,0,0-.812-.07,1.855,1.855,0,0,0-1.029.245.762.762,0,0,0-.371.665" fill="#fff"/>
          <path id="Path_388" data-name="Path 388" d="M38.779,10.528V3.234H40.7v.6a2.945,2.945,0,0,1,2.044-.742,2.98,2.98,0,0,1,1.5.371,2.644,2.644,0,0,1,1.015,1.022,3.057,3.057,0,0,1,.364,1.519v4.522H43.707V6.286A1.536,1.536,0,0,0,43.3,5.159a1.478,1.478,0,0,0-1.106-.413,1.915,1.915,0,0,0-.868.189,1.711,1.711,0,0,0-.63.539v5.054Z" fill="#fff"/>
          <path id="Path_389" data-name="Path 389" d="M47.656,13.538q-.252,0-.483-.021c-.154-.014-.283-.03-.385-.048V11.816a3.5,3.5,0,0,0,.672.056,1.46,1.46,0,0,0,1.456-.994l.112-.279L46.186,3.234H48.3L50.12,8.2l2.058-4.97H54.25l-3.36,7.882a5.628,5.628,0,0,1-.826,1.414,2.666,2.666,0,0,1-1.029.771,3.644,3.644,0,0,1-1.379.237" fill="#fff"/>
          <path id="Path_390" data-name="Path 390" d="M61.207,10.626a3.575,3.575,0,0,1-1.876-.5,3.779,3.779,0,0,1-1.337-1.351,3.67,3.67,0,0,1-.5-1.9,3.676,3.676,0,0,1,1.848-3.24,3.9,3.9,0,0,1,2.968-.351,3.543,3.543,0,0,1,.938.427V.728L65.169.406V10.528h-1.89v-.6a3.268,3.268,0,0,1-2.072.7m.308-1.638a2.632,2.632,0,0,0,.973-.175,2.064,2.064,0,0,0,.763-.525V5.446a2.288,2.288,0,0,0-.77-.5,2.551,2.551,0,0,0-.966-.182,2.167,2.167,0,0,0-1.085.273,2.007,2.007,0,0,0-.763.756,2.119,2.119,0,0,0-.28,1.085A2.066,2.066,0,0,0,60.43,8.708a2.121,2.121,0,0,0,1.085.28" fill="#fff"/>
          <path id="Path_391" data-name="Path 391" d="M70.237,10.668a3.944,3.944,0,0,1-1.981-.5,3.806,3.806,0,0,1-1.407-1.358,3.627,3.627,0,0,1-.518-1.917,3.728,3.728,0,0,1,1.848-3.277,3.675,3.675,0,0,1,1.9-.5,3.389,3.389,0,0,1,1.862.518,3.682,3.682,0,0,1,1.281,1.4,4.2,4.2,0,0,1,.469,2v.5h-5.4a2.19,2.19,0,0,0,.413.784,1.964,1.964,0,0,0,.714.546,2.163,2.163,0,0,0,.917.2,2.559,2.559,0,0,0,.9-.154,2.05,2.05,0,0,0,.707-.433l1.26,1.147a4.383,4.383,0,0,1-2.968,1.05M68.263,6.16h3.542a1.9,1.9,0,0,0-.357-.763,1.932,1.932,0,0,0-.616-.518,1.665,1.665,0,0,0-.791-.189,1.792,1.792,0,0,0-.812.182,1.692,1.692,0,0,0-.609.512,2.14,2.14,0,0,0-.357.776" fill="#fff"/>
          <path id="Path_392" data-name="Path 392" d="M76.117,10.528l-2-7.294h1.82l1.2,4.7,1.456-4.7h1.61l1.442,4.718,1.2-4.718h1.792l-2.016,7.294H80.793L79.379,5.866l-1.414,4.662Z" fill="#fff"/>
          <path id="Path_393" data-name="Path 393" d="M88.969,10.668a3.944,3.944,0,0,1-1.981-.5,3.806,3.806,0,0,1-1.407-1.358,3.627,3.627,0,0,1-.518-1.917,3.728,3.728,0,0,1,1.848-3.277,3.675,3.675,0,0,1,1.9-.5,3.389,3.389,0,0,1,1.862.518,3.682,3.682,0,0,1,1.281,1.4,4.2,4.2,0,0,1,.469,2v.5h-5.4a2.19,2.19,0,0,0,.413.784,1.964,1.964,0,0,0,.714.546,2.163,2.163,0,0,0,.917.2,2.559,2.559,0,0,0,.9-.154,2.05,2.05,0,0,0,.707-.433l1.26,1.147a4.383,4.383,0,0,1-2.968,1.05M87,6.16h3.542A1.9,1.9,0,0,0,90.18,5.4a1.932,1.932,0,0,0-.616-.518,1.665,1.665,0,0,0-.791-.189,1.792,1.792,0,0,0-.812.182,1.692,1.692,0,0,0-.609.512A2.14,2.14,0,0,0,87,6.16" fill="#fff"/>
          <path id="Path_394" data-name="Path 394" d="M93.6,10.528V.728L95.521.406V10.528Z" fill="#fff"/>
          <path id="Path_395" data-name="Path 395" d="M100.575,10.668a3.907,3.907,0,0,1-1.974-.5,3.829,3.829,0,0,1-1.4-1.357,3.631,3.631,0,0,1-.518-1.918,3.7,3.7,0,0,1,.511-1.926,3.742,3.742,0,0,1,1.4-1.364,4.145,4.145,0,0,1,3.962,0,3.75,3.75,0,0,1,1.4,1.364,3.7,3.7,0,0,1,.511,1.926,3.663,3.663,0,0,1-.511,1.918,3.779,3.779,0,0,1-1.393,1.357,3.936,3.936,0,0,1-1.988.5m0-1.666a1.927,1.927,0,0,0,1.029-.279,2.088,2.088,0,0,0,.728-.764,2.176,2.176,0,0,0-.728-2.912,1.982,1.982,0,0,0-2.051,0,2.069,2.069,0,0,0-.728.764,2.3,2.3,0,0,0,0,2.148,2.01,2.01,0,0,0,.728.764A1.937,1.937,0,0,0,100.575,9" fill="#fff"/>
          <path id="Path_396" data-name="Path 396" d="M105.643,13.385V3.234h1.89v.6a3.273,3.273,0,0,1,2.072-.7,3.575,3.575,0,0,1,1.876.5,3.793,3.793,0,0,1,1.337,1.35,3.686,3.686,0,0,1,.5,1.9,3.636,3.636,0,0,1-.5,1.9A3.818,3.818,0,0,1,108.5,10.48a3.607,3.607,0,0,1-.938-.427v3.332ZM109.3,9a2.13,2.13,0,0,0,1.085-.279,2.066,2.066,0,0,0,1.043-1.834,2.116,2.116,0,0,0-.28-1.085,2.017,2.017,0,0,0-.763-.757,2.167,2.167,0,0,0-1.085-.273,2.628,2.628,0,0,0-.973.175,2.054,2.054,0,0,0-.763.526V8.316a2.128,2.128,0,0,0,.763.5A2.6,2.6,0,0,0,109.3,9" fill="#fff"/>
          <path id="Path_397" data-name="Path 397" d="M118.047,10.668a3.944,3.944,0,0,1-1.981-.5,3.806,3.806,0,0,1-1.407-1.358,3.627,3.627,0,0,1-.518-1.917,3.728,3.728,0,0,1,1.848-3.277,3.675,3.675,0,0,1,1.9-.5,3.389,3.389,0,0,1,1.862.518,3.682,3.682,0,0,1,1.281,1.4,4.2,4.2,0,0,1,.469,2v.5h-5.4a2.19,2.19,0,0,0,.413.784,1.964,1.964,0,0,0,.714.546,2.163,2.163,0,0,0,.917.2,2.559,2.559,0,0,0,.9-.154,2.05,2.05,0,0,0,.707-.433l1.26,1.147a4.383,4.383,0,0,1-2.968,1.05M116.073,6.16h3.542a1.9,1.9,0,0,0-.357-.763,1.932,1.932,0,0,0-.616-.518,1.665,1.665,0,0,0-.791-.189,1.792,1.792,0,0,0-.812.182,1.692,1.692,0,0,0-.609.512,2.14,2.14,0,0,0-.357.776" fill="#fff"/>
          <path id="Path_398" data-name="Path 398" d="M122.681,10.528V3.234H124.6v.812a2.315,2.315,0,0,1,1.946-.98,1.739,1.739,0,0,1,.8.168v1.68a1.968,1.968,0,0,0-.462-.147,2.684,2.684,0,0,0-.518-.049,1.932,1.932,0,0,0-1.022.28,2.046,2.046,0,0,0-.742.8v4.732Z" fill="#fff"/>
          <path id="Path_399" data-name="Path 399" d="M13.114,32.076a4.305,4.305,0,0,1-1.614-.3,3.842,3.842,0,0,1-1.326-.887l.576-.565a3.419,3.419,0,0,0,1.086.762,3.247,3.247,0,0,0,1.266.234,2.593,2.593,0,0,0,1.086-.216,1.745,1.745,0,0,0,.738-.6,1.594,1.594,0,0,0,.03-1.71,1.594,1.594,0,0,0-.642-.57,2.079,2.079,0,0,0-.936-.2h-1v-.744h.96a1.509,1.509,0,0,0,1.11-.42,1.464,1.464,0,0,0,.426-1.092,1.42,1.42,0,0,0-.24-.8,1.691,1.691,0,0,0-.654-.57,2.026,2.026,0,0,0-.93-.21,2.762,2.762,0,0,0-1.158.234,3.5,3.5,0,0,0-1.038.786l-.576-.576a3.8,3.8,0,0,1,1.272-.905,3.754,3.754,0,0,1,1.512-.307,3.069,3.069,0,0,1,1.374.3,2.4,2.4,0,0,1,.954.822,2.086,2.086,0,0,1,.348,1.183A1.8,1.8,0,0,1,15.31,26.9a2.244,2.244,0,0,1-1.14.726,2.6,2.6,0,0,1,1.368.744,1.822,1.822,0,0,1,.516,1.284,2.157,2.157,0,0,1-.378,1.248,2.536,2.536,0,0,1-1.044.864,3.538,3.538,0,0,1-1.518.312" fill="#fff"/>
          <path id="Path_400" data-name="Path 400" d="M19.894,32.076a4,4,0,0,1-2.856-1.14l.54-.588a3.853,3.853,0,0,0,1.1.75,3.094,3.094,0,0,0,1.23.234,2.243,2.243,0,0,0,1.08-.252,1.787,1.787,0,0,0,.726-.708,2.08,2.08,0,0,0,.258-1.044,1.742,1.742,0,0,0-.57-1.356,2.147,2.147,0,0,0-1.494-.516,3.845,3.845,0,0,0-.936.114,4.447,4.447,0,0,0-.948.366l-.6-.192.192-4.2H22.39V24.3H18.358l-.132,2.9a4.159,4.159,0,0,1,.924-.342,4.229,4.229,0,0,1,.936-.1,3.119,3.119,0,0,1,1.446.317,2.345,2.345,0,0,1,.96.889,2.524,2.524,0,0,1,.342,1.325,2.788,2.788,0,0,1-.372,1.452,2.614,2.614,0,0,1-1.032.978,3.2,3.2,0,0,1-1.536.354" fill="#fff"/>
          <path id="Path_401" data-name="Path 401" d="M26.722,31.944v-8.4l.888-.2v8.6Z" fill="#fff"/>
          <path id="Path_402" data-name="Path 402" d="M31.018,32.053a2.741,2.741,0,0,1-1.158-.229,1.866,1.866,0,0,1-.78-.635,1.629,1.629,0,0,1-.282-.949,1.6,1.6,0,0,1,.648-1.343,2.83,2.83,0,0,1,1.752-.492,3.782,3.782,0,0,1,1.764.408v-.792a1.383,1.383,0,0,0-.408-1.086,1.724,1.724,0,0,0-1.188-.366,3.3,3.3,0,0,0-.894.126,5.35,5.35,0,0,0-.99.4l-.336-.685a6.772,6.772,0,0,1,1.2-.456,4.4,4.4,0,0,1,1.1-.143,2.584,2.584,0,0,1,1.758.54,1.944,1.944,0,0,1,.618,1.548v4.044h-.864v-.588a2.828,2.828,0,0,1-.894.521,3.093,3.093,0,0,1-1.05.175M29.65,30.217a.98.98,0,0,0,.426.821,1.786,1.786,0,0,0,1.1.319,2.761,2.761,0,0,0,.984-.168,2.267,2.267,0,0,0,.8-.529V29.532a2.636,2.636,0,0,0-.792-.366,3.667,3.667,0,0,0-.948-.113,1.871,1.871,0,0,0-1.146.317,1,1,0,0,0-.426.847" fill="#fff"/>
          <path id="Path_403" data-name="Path 403" d="M37.5,32.064a1.752,1.752,0,0,1-1.2-.372,1.367,1.367,0,0,1-.42-1.08V26.688h-1.3v-.756h1.3V24.408l.876-.228v1.752h1.812v.756H36.754v3.7a.932.932,0,0,0,.216.69.992.992,0,0,0,.708.21,2.532,2.532,0,0,0,.45-.036,2.487,2.487,0,0,0,.426-.121v.781a2.447,2.447,0,0,1-.51.12,4.313,4.313,0,0,1-.546.036" fill="#fff"/>
          <path id="Path_404" data-name="Path 404" d="M44.841,32.04a2.908,2.908,0,0,1-1.53-.414,3.034,3.034,0,0,1-1.092-1.115,3.121,3.121,0,0,1-.4-1.578,3.056,3.056,0,0,1,1.494-2.683,2.949,2.949,0,0,1,1.542-.414,3.038,3.038,0,0,1,1.02.175,2.936,2.936,0,0,1,.9.51V23.544l.888-.2v8.6h-.876v-.636a2.757,2.757,0,0,1-1.944.731m.084-.779a2.482,2.482,0,0,0,1.05-.223,2.1,2.1,0,0,0,.8-.618V27.445a2.185,2.185,0,0,0-.8-.607,2.512,2.512,0,0,0-1.05-.222,2.2,2.2,0,0,0-1.134.3,2.176,2.176,0,0,0-.8.823,2.363,2.363,0,0,0-.294,1.181,2.4,2.4,0,0,0,.294,1.189,2.259,2.259,0,0,0,.8.84,2.13,2.13,0,0,0,1.134.312" fill="#fff"/>
          <path id="Path_405" data-name="Path 405" d="M51.969,32.064a3,3,0,0,1-1.554-.414,3.048,3.048,0,0,1-1.11-1.122,3.279,3.279,0,0,1,0-3.168,3.048,3.048,0,0,1,1.11-1.122,3.135,3.135,0,0,1,3.114,0,3.062,3.062,0,0,1,1.1,1.122,3.279,3.279,0,0,1,0,3.168,3.062,3.062,0,0,1-1.1,1.122,2.993,2.993,0,0,1-1.56.414m0-.792a2.048,2.048,0,0,0,1.11-.312,2.291,2.291,0,0,0,.792-.84,2.511,2.511,0,0,0,0-2.358,2.3,2.3,0,0,0-.792-.834,2.131,2.131,0,0,0-2.22,0,2.3,2.3,0,0,0-.792.834,2.511,2.511,0,0,0,0,2.358,2.291,2.291,0,0,0,.792.84,2.048,2.048,0,0,0,1.11.312" fill="#fff"/>
          <path id="Path_406" data-name="Path 406" d="M58.2,32.064a3.938,3.938,0,0,1-1.4-.246,3.409,3.409,0,0,1-1.134-.69l.54-.575a3.166,3.166,0,0,0,.924.593,2.66,2.66,0,0,0,1.032.21,2.094,2.094,0,0,0,1.176-.3.9.9,0,0,0,.456-.78.757.757,0,0,0-.27-.618,1.74,1.74,0,0,0-.846-.306l-1.044-.144a2.451,2.451,0,0,1-1.338-.54,1.436,1.436,0,0,1-.438-1.1,1.494,1.494,0,0,1,.288-.9,1.938,1.938,0,0,1,.8-.624,2.856,2.856,0,0,1,1.17-.228A3.884,3.884,0,0,1,59.349,26a4.089,4.089,0,0,1,1.128.6l-.468.6a4.107,4.107,0,0,0-.978-.51,2.968,2.968,0,0,0-.966-.162,1.689,1.689,0,0,0-1.008.276.849.849,0,0,0-.384.72.74.74,0,0,0,.264.618,1.786,1.786,0,0,0,.852.294l1.044.144a2.466,2.466,0,0,1,1.35.528,1.434,1.434,0,0,1,.45,1.116,1.493,1.493,0,0,1-.324.936,2.181,2.181,0,0,1-.87.66,3.058,3.058,0,0,1-1.242.24m-.78-7.32,1.128-1.392h1.14L58.2,24.744Z" fill="#fff"/>
          <path id="Path_407" data-name="Path 407" d="M62.733,31.944l-1.692-6.012h.876l1.3,4.8,1.5-4.8h.792l1.488,4.8,1.308-4.8h.84l-1.7,6.012h-.852L65.1,27.132l-1.5,4.812Z" fill="#fff"/>
          <path id="Path_408" data-name="Path 408" d="M70.509,24.78a.576.576,0,0,1-.42-.18.589.589,0,0,1-.18-.432.556.556,0,0,1,.18-.414.585.585,0,0,1,.42-.174.6.6,0,0,1,.426,1.02.57.57,0,0,1-.426.18m-.444,1.152h.888v6.012h-.888Z" fill="#fff"/>
          <path id="Path_409" data-name="Path 409" d="M74.361,32.053a2.741,2.741,0,0,1-1.158-.229,1.866,1.866,0,0,1-.78-.635,1.629,1.629,0,0,1-.282-.949,1.6,1.6,0,0,1,.648-1.343,2.83,2.83,0,0,1,1.752-.492,3.782,3.782,0,0,1,1.764.408v-.792a1.383,1.383,0,0,0-.408-1.086,1.724,1.724,0,0,0-1.188-.366,3.3,3.3,0,0,0-.894.126,5.35,5.35,0,0,0-.99.4l-.336-.685a6.772,6.772,0,0,1,1.2-.456,4.4,4.4,0,0,1,1.1-.143,2.584,2.584,0,0,1,1.758.54,1.944,1.944,0,0,1,.618,1.548v4.044h-.864v-.588a2.828,2.828,0,0,1-.894.521,3.093,3.093,0,0,1-1.05.175m-1.368-1.836a.98.98,0,0,0,.426.821,1.786,1.786,0,0,0,1.1.319,2.761,2.761,0,0,0,.984-.168,2.267,2.267,0,0,0,.8-.529V29.532a2.636,2.636,0,0,0-.792-.366,3.668,3.668,0,0,0-.948-.113,1.871,1.871,0,0,0-1.146.317,1,1,0,0,0-.426.847" fill="#fff"/>
          <path id="Path_410" data-name="Path 410" d="M81.4,32.04a2.908,2.908,0,0,1-1.53-.414,3.034,3.034,0,0,1-1.092-1.115,3.121,3.121,0,0,1-.4-1.578,3.056,3.056,0,0,1,1.494-2.683,2.949,2.949,0,0,1,1.542-.414,3.038,3.038,0,0,1,1.02.175,2.936,2.936,0,0,1,.9.51V23.544l.888-.2v8.6h-.876v-.636a2.757,2.757,0,0,1-1.944.731m.084-.779a2.482,2.482,0,0,0,1.05-.223,2.1,2.1,0,0,0,.8-.618V27.445a2.185,2.185,0,0,0-.8-.607,2.512,2.512,0,0,0-1.05-.222,2.2,2.2,0,0,0-1.134.3,2.176,2.176,0,0,0-.8.823,2.363,2.363,0,0,0-.294,1.181,2.4,2.4,0,0,0,.294,1.189,2.259,2.259,0,0,0,.8.84,2.13,2.13,0,0,0,1.134.312" fill="#fff"/>
          <path id="Path_411" data-name="Path 411" d="M88.521,32.053a2.98,2.98,0,0,1-1.548-.414,3.062,3.062,0,0,1-1.1-1.122,3.117,3.117,0,0,1-.408-1.584,3.082,3.082,0,0,1,.408-1.578,3.124,3.124,0,0,1,1.1-1.122,2.929,2.929,0,0,1,1.548-.42,3.38,3.38,0,0,1,1.272.246,3.275,3.275,0,0,1,1.08.7l-.564.647a2.447,2.447,0,0,0-.822-.582,2.416,2.416,0,0,0-.954-.2,2.079,2.079,0,0,0-1.11.307,2.242,2.242,0,0,0-.792.828,2.34,2.34,0,0,0-.294,1.17,2.376,2.376,0,0,0,.294,1.176,2.221,2.221,0,0,0,.8.834,2.108,2.108,0,0,0,1.116.3,2.29,2.29,0,0,0,.93-.191,2.781,2.781,0,0,0,.822-.565l.552.6a3.557,3.557,0,0,1-1.08.708,3.192,3.192,0,0,1-1.248.252" fill="#fff"/>
          <path id="Path_412" data-name="Path 412" d="M91.629,31.944v-.7l3.624-4.524H91.665v-.792h4.668v.684L92.7,31.152h3.672v.792Z" fill="#fff"/>
          <path id="Path_413" data-name="Path 413" d="M100.209,32.053a3.034,3.034,0,0,1-1.566-.414,3.2,3.2,0,0,1-1.134-4.273,3.043,3.043,0,0,1,1.068-1.116,2.811,2.811,0,0,1,1.5-.414,2.619,2.619,0,0,1,1.446.414,2.985,2.985,0,0,1,1.02,1.116,3.251,3.251,0,0,1,.378,1.567v.275H97.989a2.449,2.449,0,0,0,.378,1.057,2.22,2.22,0,0,0,1.878,1.007,2.909,2.909,0,0,0,.912-.144,2.1,2.1,0,0,0,.744-.407l.552.588a3.861,3.861,0,0,1-1.05.557,3.682,3.682,0,0,1-1.194.187m-2.2-3.553h4.02a2.273,2.273,0,0,0-.354-.966,2.122,2.122,0,0,0-.7-.672,1.8,1.8,0,0,0-.924-.246,1.919,1.919,0,0,0-.948.24,2.091,2.091,0,0,0-.72.666,2.364,2.364,0,0,0-.372.978" fill="#fff"/>
          <path id="Path_414" data-name="Path 414" d="M104.157,31.944V25.932h.888v.708a2.368,2.368,0,0,1,1.9-.828,2.415,2.415,0,0,1,1.206.294,2.105,2.105,0,0,1,.816.816,2.44,2.44,0,0,1,.294,1.218v3.8h-.876V28.32a1.737,1.737,0,0,0-.45-1.266,1.638,1.638,0,0,0-1.23-.462,1.911,1.911,0,0,0-.96.24,1.962,1.962,0,0,0-.7.684v4.428Z" fill="#fff"/>
          <path id="Path_415" data-name="Path 415" d="M111.189,24.78a.576.576,0,0,1-.42-.18.589.589,0,0,1-.18-.432.556.556,0,0,1,.18-.414.585.585,0,0,1,.42-.174.594.594,0,0,1,.6.6.588.588,0,0,1-.174.42.57.57,0,0,1-.426.18m-.444,1.152h.888v6.012h-.888Z" fill="#fff"/>
          <path id="Path_416" data-name="Path 416" d="M115.041,32.053a2.741,2.741,0,0,1-1.158-.229,1.866,1.866,0,0,1-.78-.635,1.629,1.629,0,0,1-.282-.949,1.6,1.6,0,0,1,.648-1.343,2.83,2.83,0,0,1,1.752-.492,3.782,3.782,0,0,1,1.764.408v-.792a1.383,1.383,0,0,0-.408-1.086,1.724,1.724,0,0,0-1.188-.366,3.3,3.3,0,0,0-.894.126,5.35,5.35,0,0,0-.99.4l-.336-.685a6.772,6.772,0,0,1,1.2-.456,4.4,4.4,0,0,1,1.1-.143,2.584,2.584,0,0,1,1.758.54,1.944,1.944,0,0,1,.618,1.548v4.044h-.864v-.588a2.828,2.828,0,0,1-.894.521,3.093,3.093,0,0,1-1.05.175m-1.368-1.836a.98.98,0,0,0,.426.821,1.786,1.786,0,0,0,1.1.319,2.761,2.761,0,0,0,.984-.168,2.267,2.267,0,0,0,.8-.529V29.532a2.636,2.636,0,0,0-.792-.366,3.668,3.668,0,0,0-.948-.113,1.871,1.871,0,0,0-1.146.317,1,1,0,0,0-.426.847" fill="#fff"/>
          <path id="Path_417" data-name="Path 417" d="M26.091,68.367a5.055,5.055,0,0,1-2.067-.436,5.222,5.222,0,0,1-1.742-1.253l.663-.69a4.968,4.968,0,0,0,1.5,1.131,3.891,3.891,0,0,0,1.684.377,3.276,3.276,0,0,0,1.267-.229,2.009,2.009,0,0,0,.865-.636,1.494,1.494,0,0,0,.312-.93,1.284,1.284,0,0,0-.488-1.078,3.639,3.639,0,0,0-1.6-.559l-1.313-.209a3.817,3.817,0,0,1-1.937-.779,1.941,1.941,0,0,1-.624-1.521,2.245,2.245,0,0,1,.4-1.327,2.643,2.643,0,0,1,1.124-.89,4.127,4.127,0,0,1,1.671-.319,5.877,5.877,0,0,1,1.891.313,5.81,5.81,0,0,1,1.7.9l-.572.782a5.013,5.013,0,0,0-3.055-1.133,3,3,0,0,0-1.144.2,1.772,1.772,0,0,0-.767.558,1.344,1.344,0,0,0-.273.838,1.166,1.166,0,0,0,.429.975,3.1,3.1,0,0,0,1.417.494l1.3.209a4.382,4.382,0,0,1,2.171.838,2.089,2.089,0,0,1,.676,1.658,2.368,2.368,0,0,1-.442,1.41,2.888,2.888,0,0,1-1.229.961,4.456,4.456,0,0,1-1.813.346" fill="#fff"/>
          <path id="Path_418" data-name="Path 418" d="M32.058,70.889V61.725h.949v.7a2.933,2.933,0,0,1,2.106-.807,3.152,3.152,0,0,1,1.664.449,3.324,3.324,0,0,1,1.612,2.907,3.374,3.374,0,0,1-.436,1.709,3.315,3.315,0,0,1-1.176,1.208,3.174,3.174,0,0,1-1.677.448,3.21,3.21,0,0,1-1.1-.194,3.273,3.273,0,0,1-.975-.56v3.3ZM35.022,67.5a2.333,2.333,0,0,0,1.235-.332,2.416,2.416,0,0,0,.864-.9,2.555,2.555,0,0,0,.319-1.281,2.6,2.6,0,0,0-.319-1.287,2.393,2.393,0,0,0-.864-.9,2.333,2.333,0,0,0-1.235-.332,2.71,2.71,0,0,0-1.138.24,2.277,2.277,0,0,0-.864.67V66.6a2.332,2.332,0,0,0,.871.656,2.721,2.721,0,0,0,1.131.24" fill="#fff"/>
          <path id="Path_419" data-name="Path 419" d="M41.028,68.236V61.724h.962v.922a2.229,2.229,0,0,1,.761-.787,2.012,2.012,0,0,1,1.059-.279,1.917,1.917,0,0,1,.611.092v.884a1.53,1.53,0,0,0-.338-.091,2.138,2.138,0,0,0-.338-.026,1.676,1.676,0,0,0-1.047.344,2.289,2.289,0,0,0-.708.994v4.459Z" fill="#fff"/>
          <path id="Path_420" data-name="Path 420" d="M48.555,68.353a2.991,2.991,0,0,1-1.254-.246,2.035,2.035,0,0,1-.846-.689,1.768,1.768,0,0,1-.305-1.028,1.729,1.729,0,0,1,.7-1.455,3.066,3.066,0,0,1,1.9-.533,4.107,4.107,0,0,1,1.911.442v-.858a1.506,1.506,0,0,0-.442-1.178,1.875,1.875,0,0,0-1.287-.4,3.608,3.608,0,0,0-.968.137,5.866,5.866,0,0,0-1.073.435l-.364-.74a7.046,7.046,0,0,1,1.3-.494,4.715,4.715,0,0,1,1.2-.156,2.8,2.8,0,0,1,1.9.585,2.1,2.1,0,0,1,.67,1.676v4.381h-.936V67.6a3.117,3.117,0,0,1-.968.567,3.371,3.371,0,0,1-1.138.187m-1.482-1.988a1.069,1.069,0,0,0,.461.891,1.95,1.95,0,0,0,1.19.343,3,3,0,0,0,1.066-.181,2.448,2.448,0,0,0,.871-.573V65.623a2.906,2.906,0,0,0-.858-.4,3.945,3.945,0,0,0-1.027-.123,2.029,2.029,0,0,0-1.242.346,1.087,1.087,0,0,0-.461.916" fill="#fff"/>
          <path id="Path_421" data-name="Path 421" d="M55.575,68.236l-1.833-6.512h.949l1.4,5.2,1.625-5.2h.858l1.612,5.2,1.417-5.2h.91l-1.846,6.512h-.923l-1.612-5.213-1.625,5.213Z" fill="#fff"/>
          <path id="Path_422" data-name="Path 422" d="M67.665,68.34a3.162,3.162,0,0,1-1.658-.448,3.3,3.3,0,0,1-1.183-1.208,3.384,3.384,0,0,1-.435-1.709,3.347,3.347,0,0,1,.435-1.7,3.3,3.3,0,0,1,1.183-1.2,3.186,3.186,0,0,1,1.671-.449,3.312,3.312,0,0,1,1.1.19,3.21,3.21,0,0,1,.975.552V59.137l.962-.221v9.32h-.949v-.689a2.986,2.986,0,0,1-2.106.793m.091-.844a2.708,2.708,0,0,0,1.137-.24,2.308,2.308,0,0,0,.865-.67V63.361a2.359,2.359,0,0,0-.865-.656,2.708,2.708,0,0,0-1.137-.24,2.4,2.4,0,0,0-1.229.324,2.366,2.366,0,0,0-.871.891,2.568,2.568,0,0,0-.318,1.281,2.6,2.6,0,0,0,.318,1.287,2.455,2.455,0,0,0,.871.91,2.313,2.313,0,0,0,1.229.338" fill="#fff"/>
          <path id="Path_423" data-name="Path 423" d="M73.242,68.236v-.754l3.926-4.9H73.281v-.858h5.057v.74L74.4,67.378h3.978v.858Zm1.729-7.8,1.222-1.508h1.235l-1.612,1.508Z" fill="#fff"/>
          <path id="Path_424" data-name="Path 424" d="M85.072,68.236V61.724h.962v.766a2.566,2.566,0,0,1,2.054-.9,2.612,2.612,0,0,1,1.307.319,2.292,2.292,0,0,1,.884.885,2.643,2.643,0,0,1,.318,1.318v4.121h-.949V64.31a1.882,1.882,0,0,0-.487-1.371,1.774,1.774,0,0,0-1.333-.5,2.054,2.054,0,0,0-1.04.26,2.142,2.142,0,0,0-.754.74v4.8Z" fill="#fff"/>
          <path id="Path_425" data-name="Path 425" d="M95.563,68.353a2.991,2.991,0,0,1-1.254-.246,2.035,2.035,0,0,1-.846-.689,1.768,1.768,0,0,1-.305-1.028,1.729,1.729,0,0,1,.7-1.455,3.066,3.066,0,0,1,1.9-.533,4.107,4.107,0,0,1,1.911.442v-.858a1.506,1.506,0,0,0-.442-1.178,1.875,1.875,0,0,0-1.287-.4,3.608,3.608,0,0,0-.968.137,5.866,5.866,0,0,0-1.073.435l-.364-.74a7.046,7.046,0,0,1,1.3-.494,4.715,4.715,0,0,1,1.2-.156,2.8,2.8,0,0,1,1.9.585,2.1,2.1,0,0,1,.67,1.676v4.381h-.936V67.6a3.117,3.117,0,0,1-.968.567,3.371,3.371,0,0,1-1.138.187m-1.482-1.988a1.069,1.069,0,0,0,.461.891,1.95,1.95,0,0,0,1.19.343,3,3,0,0,0,1.066-.181,2.448,2.448,0,0,0,.871-.573V65.623a2.905,2.905,0,0,0-.858-.4,3.945,3.945,0,0,0-1.027-.123,2.029,2.029,0,0,0-1.242.346,1.087,1.087,0,0,0-.461.916" fill="#fff"/>
          <path id="Path_426" data-name="Path 426" d="M103.6,68.367a4.262,4.262,0,0,1-1.515-.268,3.7,3.7,0,0,1-1.228-.746l.585-.625a3.44,3.44,0,0,0,1,.645,2.911,2.911,0,0,0,1.118.226,2.274,2.274,0,0,0,1.274-.324.978.978,0,0,0,.494-.845.822.822,0,0,0-.292-.67,1.873,1.873,0,0,0-.917-.331l-1.131-.156a2.655,2.655,0,0,1-1.45-.586,1.555,1.555,0,0,1-.474-1.195,1.614,1.614,0,0,1,.312-.975,2.1,2.1,0,0,1,.865-.677,3.083,3.083,0,0,1,1.267-.246,4.2,4.2,0,0,1,1.339.209,4.424,4.424,0,0,1,1.222.648l-.507.65a4.349,4.349,0,0,0-1.059-.552,3.2,3.2,0,0,0-1.047-.176,1.824,1.824,0,0,0-1.092.3.925.925,0,0,0-.416.781.8.8,0,0,0,.286.67,1.958,1.958,0,0,0,.923.318l1.131.156a2.665,2.665,0,0,1,1.462.571,1.549,1.549,0,0,1,.488,1.209,1.623,1.623,0,0,1-.351,1.015,2.372,2.372,0,0,1-.942.715,3.342,3.342,0,0,1-1.346.26" fill="#fff"/>
          <line id="Line_85" data-name="Line 85" x2="84.125" transform="translate(21.706 79.086)" fill="none" stroke="#fff" stroke-width="1"/>
        </g>
      </g>
    </g>
  </g>
</svg>
